<?xml version="1.0" standalone="no"?>
<!DOCTYPE svg PUBLIC "-//W3C//DTD SVG 20010904//EN"
 "http://www.w3.org/TR/2001/REC-SVG-20010904/DTD/svg10.dtd">
<svg version="1.0" xmlns="http://www.w3.org/2000/svg"
 width="1843.000000pt" height="1843.000000pt" viewBox="0 0 1843.000000 1843.000000"
 preserveAspectRatio="xMidYMid meet">

<g transform="translate(0.000000,1843.000000) scale(0.100000,-0.100000)"
fill="#000000" stroke="none">
<path d="M9750 18009 c-19 -6 -55 -14 -79 -20 -25 -5 -53 -16 -63 -26 -10 -9
-18 -13 -18 -9 0 10 -80 -33 -121 -65 -20 -16 -41 -29 -47 -29 -5 0 -34 -22
-63 -50 -29 -27 -56 -50 -59 -50 -8 0 -70 -78 -70 -88 0 -6 -6 -12 -14 -15 -8
-3 -31 -34 -51 -69 -21 -35 -50 -79 -66 -99 -16 -20 -29 -46 -29 -57 0 -11 -7
-25 -15 -32 -9 -7 -29 -43 -46 -79 -17 -36 -37 -79 -45 -94 -8 -16 -14 -35
-14 -43 0 -8 -10 -28 -21 -43 -12 -16 -18 -34 -15 -40 4 -6 -2 -28 -13 -49
-20 -39 -21 -40 -65 -35 -31 4 -51 1 -67 -11 -13 -9 -35 -16 -49 -16 -34 0
-143 -105 -170 -165 -11 -24 -24 -47 -30 -50 -5 -3 -17 -32 -26 -63 -9 -31
-20 -61 -24 -67 -14 -18 -58 -198 -75 -307 l-6 -38 -62 6 c-34 3 -78 7 -97 9
-19 1 -42 5 -50 8 -8 3 -26 6 -40 6 -66 -1 -176 7 -188 14 -7 5 -43 8 -80 7
-66 -1 -82 1 -132 13 -14 4 -48 9 -77 11 l-52 5 -6 -37 c-4 -20 -15 -57 -26
-82 -10 -25 -21 -58 -24 -75 -2 -16 -13 -57 -24 -90 -22 -66 -61 -190 -115
-365 -79 -261 -80 -262 -147 -353 -35 -49 -68 -96 -74 -105 -5 -9 -19 -30 -31
-47 -47 -69 -162 -294 -227 -445 -69 -164 -144 -412 -172 -575 -44 -254 -47
-288 -51 -525 -5 -255 -11 -308 -49 -425 -12 -38 -37 -117 -54 -175 -18 -58
-39 -125 -47 -150 -9 -25 -24 -79 -36 -120 -11 -41 -23 -79 -28 -85 -4 -5 -13
-37 -20 -70 -7 -33 -17 -68 -22 -79 -6 -10 -20 -55 -33 -100 -13 -44 -42 -142
-65 -216 -23 -74 -48 -155 -55 -180 -7 -25 -18 -58 -24 -75 -12 -34 -48 -151
-81 -265 -12 -41 -26 -84 -30 -95 -5 -11 -12 -36 -15 -55 -4 -19 -13 -48 -21
-65 -18 -42 -44 -147 -38 -156 3 -5 -4 -26 -15 -48 -23 -45 -18 -54 39 -65 84
-15 136 -26 155 -35 54 -24 78 -31 101 -31 13 0 32 -4 42 -9 16 -9 108 -35
124 -36 4 0 13 -6 19 -12 7 -7 19 -13 26 -13 7 0 44 -14 81 -31 37 -17 76 -35
87 -39 11 -4 36 -15 55 -23 19 -9 55 -23 80 -33 25 -9 49 -21 55 -26 5 -4 19
-8 31 -8 25 0 53 -28 38 -38 -11 -7 -84 -125 -84 -135 0 -3 -13 -26 -30 -50
-16 -25 -30 -51 -30 -59 0 -8 -9 -23 -19 -32 -20 -18 -61 -97 -61 -117 0 -7
20 -9 63 -5 172 17 239 13 372 -18 33 -8 94 -22 135 -31 97 -22 138 -33 175
-49 17 -8 55 -21 85 -31 30 -10 60 -20 67 -22 6 -2 22 17 36 44 43 83 70 128
104 172 4 6 79 -17 128 -39 22 -10 56 -23 75 -30 56 -20 119 -51 126 -62 3 -5
10 -59 15 -120 5 -61 14 -129 21 -152 6 -22 13 -52 14 -66 2 -14 6 -36 10 -50
4 -14 8 -32 8 -40 1 -11 15 -16 56 -18 79 -3 85 2 66 74 -15 59 -35 175 -42
244 -2 19 -6 50 -9 68 -7 36 -6 36 27 22 22 -11 84 -25 315 -74 61 -13 116
-26 121 -30 6 -3 31 -8 56 -11 25 -2 55 -9 65 -15 11 -5 30 -10 43 -10 13 0
52 -9 86 -20 35 -11 68 -17 74 -14 11 7 75 -9 123 -31 17 -8 71 -21 120 -30
50 -9 106 -23 125 -30 19 -8 67 -19 105 -25 39 -6 99 -19 135 -29 160 -45 227
-62 260 -65 19 -2 42 -6 50 -9 28 -11 125 -35 185 -47 33 -6 69 -15 80 -20 11
-5 47 -13 80 -19 33 -5 85 -16 115 -25 30 -9 80 -21 110 -27 78 -16 105 -28
55 -24 -22 1 -30 1 -18 -2 21 -4 41 -33 22 -33 -5 0 -7 -11 -3 -24 5 -20 0
-26 -39 -42 l-45 -18 15 -31 c9 -16 21 -33 27 -37 7 -5 6 -8 -4 -8 -8 0 -28
-11 -43 -24 -16 -14 -32 -26 -36 -28 -12 -5 -22 -68 -11 -68 14 0 12 -27 -2
-33 -7 -3 -3 -6 10 -6 28 -1 28 -8 -4 -54 -14 -21 -24 -46 -22 -55 2 -9 -2
-21 -9 -27 -10 -8 -10 -16 2 -39 11 -20 12 -32 5 -36 -6 -4 0 -11 15 -18 14
-6 25 -7 25 -2 0 5 8 7 18 5 18 -3 325 10 460 20 58 4 91 0 160 -19 108 -29
228 -85 245 -113 4 -7 14 -13 21 -13 16 0 103 -94 134 -146 20 -31 22 -46 17
-82 -6 -43 -49 -122 -70 -131 -8 -3 -54 -50 -101 -103 -6 -7 -40 -38 -74 -68
-35 -30 -77 -67 -94 -82 -17 -16 -40 -28 -53 -28 -12 0 -24 -4 -27 -9 -6 -9
-121 -23 -211 -26 -83 -2 -208 -16 -240 -26 -43 -13 -99 -97 -135 -199 -20
-58 -39 -174 -29 -184 4 -5 6 -35 2 -66 -4 -43 -2 -59 8 -66 16 -10 74 -33
104 -41 11 -2 40 -15 65 -28 25 -13 81 -37 125 -55 44 -17 89 -37 101 -45 24
-15 167 -65 188 -65 7 0 34 -11 60 -25 26 -14 52 -25 59 -25 7 0 25 -7 40 -15
16 -8 50 -21 75 -29 26 -8 72 -24 102 -36 30 -12 56 -21 58 -20 4 2 110 -38
149 -55 17 -8 36 -15 42 -15 6 0 28 -9 48 -20 21 -11 43 -20 49 -20 7 0 32
-11 55 -25 24 -14 50 -25 57 -25 7 0 30 -11 52 -25 22 -14 44 -25 50 -25 5 0
47 -18 92 -40 46 -22 88 -40 94 -40 6 0 17 -7 24 -15 7 -8 22 -15 34 -15 12 0
35 -13 51 -30 16 -17 34 -30 40 -30 6 0 28 -16 49 -35 38 -35 38 -35 31 -92
-3 -32 -13 -67 -20 -79 -24 -38 -180 -172 -208 -179 -15 -4 -36 -18 -47 -32
-10 -14 -24 -22 -29 -19 -5 4 -41 -10 -79 -29 -39 -19 -74 -35 -79 -35 -5 0
-46 -18 -91 -40 -45 -22 -130 -60 -189 -84 -60 -25 -139 -58 -176 -75 -38 -17
-139 -58 -225 -92 -86 -34 -184 -72 -217 -86 -33 -13 -69 -28 -80 -33 -25 -10
-105 -33 -125 -36 -118 -17 -225 -36 -233 -41 -5 -3 -28 -7 -51 -9 -70 -6
-399 -5 -441 1 -22 3 -62 7 -90 11 -87 9 -189 23 -215 28 -14 2 -65 12 -115
21 -49 9 -112 23 -140 31 -69 19 -174 43 -210 47 -42 6 -81 16 -150 39 -33 11
-106 32 -163 47 l-103 26 -24 45 c-13 25 -30 59 -38 75 -8 17 -29 59 -47 95
-48 94 -50 99 -50 112 0 13 -77 88 -91 88 -4 0 -12 6 -16 14 -11 19 -47 36
-77 36 -14 0 -28 5 -31 10 -3 6 -18 10 -33 10 -15 1 -38 7 -52 15 -14 8 -39
14 -57 15 -17 0 -35 4 -38 10 -3 5 -16 10 -28 10 -12 0 -51 11 -87 23 -99 36
-135 47 -156 47 -10 1 -37 9 -59 20 -22 11 -48 19 -58 20 -10 0 -35 9 -57 20
-22 11 -48 20 -60 20 -11 0 -28 4 -38 9 -30 15 -66 29 -107 42 -22 7 -54 18
-72 26 -17 7 -38 13 -48 13 -9 0 -29 7 -44 15 -16 8 -59 23 -97 34 -98 28
-134 41 -176 62 -20 10 -46 19 -57 19 -10 0 -36 9 -58 19 -47 24 -184 71 -205
71 -9 0 -21 -7 -28 -15 -7 -8 -23 -15 -35 -15 -28 0 -123 -77 -160 -130 -21
-30 -31 -37 -43 -30 -10 4 -82 29 -162 54 -146 47 -191 64 -266 97 -22 11 -51
19 -65 19 -14 0 -30 5 -37 12 -15 15 -80 38 -109 38 -12 0 -25 4 -28 10 -3 5
-16 10 -27 10 -11 0 -35 8 -52 18 -17 10 -51 25 -76 32 -25 8 -47 17 -50 20
-19 23 -61 40 -97 40 -39 0 -61 7 -148 46 -41 18 -123 44 -138 44 -7 0 -18 5
-25 12 -6 6 -26 17 -44 24 -18 6 -60 22 -93 34 -33 13 -73 32 -90 44 -17 11
-45 21 -65 21 -32 0 -38 4 -52 35 -26 60 -98 286 -98 309 0 11 -5 21 -11 21
-7 0 -9 9 -6 22 12 44 -153 188 -216 188 -5 0 -25 11 -43 25 -18 14 -44 25
-59 25 -14 0 -28 7 -31 15 -4 8 -16 15 -29 15 -12 0 -30 9 -40 20 -10 11 -22
20 -27 20 -5 0 -41 16 -79 35 -39 19 -75 35 -81 35 -5 0 -23 9 -39 20 -15 12
-43 26 -61 32 -18 6 -51 24 -72 40 -21 15 -45 28 -53 28 -8 0 -29 11 -46 24
-35 26 -95 56 -110 56 -16 0 -226 109 -283 146 -28 19 -55 34 -59 34 -5 0 -22
11 -39 24 -17 13 -42 27 -56 31 -14 4 -32 13 -40 21 -9 7 -36 24 -60 37 -25
13 -62 34 -83 46 -41 23 -82 27 -93 10 -3 -6 -15 -8 -27 -5 -23 6 -114 -41
-165 -86 -19 -16 -37 -28 -40 -26 -103 48 -194 97 -244 131 -35 24 -91 63
-126 87 -76 51 -100 83 -82 105 7 8 17 15 23 15 5 0 35 12 64 26 30 14 82 31
116 38 34 8 78 20 98 29 20 8 69 18 110 22 41 4 92 13 114 21 22 7 69 17 105
20 36 4 70 10 75 14 6 4 31 8 56 9 26 1 71 6 100 12 30 6 94 15 144 20 49 6
95 15 102 21 7 6 13 31 13 57 0 45 -1 47 -30 49 -16 1 -51 -3 -77 -9 -26 -6
-75 -13 -108 -15 -70 -4 -175 -21 -225 -35 -19 -5 -82 -16 -140 -24 -58 -8
-138 -23 -179 -34 -41 -11 -78 -18 -83 -15 -4 3 -8 0 -8 -5 0 -6 -19 -11 -43
-11 -24 0 -52 -7 -63 -15 -10 -8 -33 -15 -50 -15 -17 0 -37 -7 -44 -15 -7 -8
-22 -15 -33 -15 -11 0 -49 -19 -83 -42 -113 -74 -119 -139 -20 -238 62 -63
123 -110 143 -110 7 0 13 -4 13 -9 0 -11 56 -41 75 -41 7 0 20 -9 30 -20 10
-11 24 -20 32 -20 7 0 13 -4 13 -10 0 -5 8 -10 19 -10 10 0 24 -7 31 -15 7 -8
21 -15 31 -15 29 0 34 -38 9 -65 -22 -24 -23 -48 -6 -145 3 -14 9 -49 14 -79
5 -29 15 -57 22 -61 7 -4 10 -15 7 -23 -3 -9 2 -26 13 -39 10 -13 22 -42 25
-64 4 -21 11 -43 15 -49 4 -5 10 -22 14 -37 3 -16 11 -28 16 -28 6 0 10 -7 10
-16 0 -21 150 -338 204 -431 14 -25 51 -56 79 -66 9 -3 17 -11 17 -17 0 -5 6
-10 14 -10 7 0 19 -7 26 -15 7 -8 21 -15 31 -15 10 0 23 -8 28 -17 5 -10 36
-31 68 -47 32 -15 75 -37 96 -47 22 -10 43 -19 49 -19 6 0 23 -11 40 -25 16
-14 38 -25 48 -25 10 0 21 -4 24 -9 8 -12 100 -55 210 -97 50 -20 105 -41 121
-48 17 -7 57 -24 90 -36 33 -13 74 -29 92 -36 17 -8 38 -14 46 -14 9 0 19 -4
22 -10 3 -5 19 -10 34 -10 15 0 32 -5 39 -12 13 -13 79 -39 102 -40 8 0 21 -5
27 -11 17 -13 166 -57 228 -67 28 -4 58 -3 68 2 9 5 21 7 26 4 22 -14 327 76
355 104 5 5 20 10 33 10 13 0 32 9 43 20 11 11 28 20 37 20 10 0 31 7 47 15
15 8 33 15 38 15 6 0 24 6 41 14 92 40 155 64 159 61 2 -2 21 -6 41 -8 21 -2
45 -11 55 -20 10 -9 37 -19 60 -23 24 -4 60 -15 80 -25 20 -11 43 -19 51 -19
18 0 128 -38 163 -56 14 -8 37 -14 51 -14 13 0 30 -7 37 -15 7 -8 28 -17 49
-21 20 -4 41 -10 46 -14 6 -3 30 -12 55 -19 25 -7 63 -22 86 -32 23 -10 48
-19 57 -19 9 0 18 -4 22 -9 3 -5 20 -14 38 -19 123 -36 132 -41 107 -57 -15
-9 -12 -89 5 -111 8 -10 15 -28 15 -40 0 -11 7 -29 15 -40 8 -10 15 -29 15
-42 0 -12 9 -30 20 -39 11 -10 20 -28 20 -40 0 -13 5 -23 10 -23 6 0 22 -24
36 -53 42 -86 57 -112 66 -115 4 -2 8 -7 8 -12 0 -8 73 -123 93 -145 8 -9 39
-58 62 -95 27 -44 109 -150 117 -150 4 0 8 -6 8 -13 0 -14 154 -92 183 -92 10
0 21 -5 25 -11 14 -22 103 -53 231 -80 13 -3 33 -11 45 -19 11 -8 31 -15 44
-15 12 0 33 -6 45 -14 12 -7 63 -23 112 -35 50 -11 147 -34 218 -51 70 -16
138 -30 151 -30 12 0 36 -5 52 -10 l29 -10 -1 -159 c-1 -87 -5 -165 -10 -172
-10 -16 -12 -32 -17 -149 -2 -47 -4 -95 -5 -107 l-2 -22 -36 22 c-20 12 -48
30 -62 39 -15 10 -40 25 -57 34 -16 9 -41 26 -55 36 -26 20 -159 97 -220 128
-173 86 -237 103 -297 78 -21 -9 -56 -22 -78 -29 -22 -6 -60 -19 -85 -29 -118
-46 -156 -60 -163 -60 -5 0 -33 -11 -62 -25 -30 -13 -66 -27 -80 -31 -14 -3
-28 -10 -31 -15 -3 -5 -13 -9 -22 -9 -9 0 -48 -16 -86 -35 -39 -19 -78 -35
-88 -35 -10 0 -26 -4 -36 -9 -9 -5 -35 -17 -57 -26 -22 -9 -48 -20 -57 -25
-10 -6 -22 -10 -27 -10 -5 0 -38 -13 -73 -29 -35 -15 -94 -41 -133 -56 -38
-16 -77 -34 -85 -40 -8 -7 -46 -25 -85 -40 -38 -16 -77 -37 -86 -48 -9 -11
-21 -17 -28 -13 -12 8 -47 -7 -116 -50 -22 -13 -47 -27 -55 -30 -8 -3 -32 -14
-52 -24 -20 -11 -42 -20 -48 -20 -7 0 -24 -8 -38 -18 -15 -10 -56 -29 -90 -42
-35 -13 -78 -33 -96 -45 -18 -12 -43 -25 -57 -28 -13 -4 -46 -20 -74 -37 -75
-45 -77 -46 -119 -64 -21 -9 -68 -36 -105 -59 -36 -23 -75 -48 -86 -54 -11 -7
-43 -24 -71 -38 -28 -14 -59 -34 -69 -45 -10 -11 -24 -20 -30 -20 -7 0 -18 -6
-24 -14 -7 -8 -25 -17 -40 -21 -15 -3 -43 -21 -61 -40 -19 -19 -39 -35 -44
-35 -6 0 -30 -15 -53 -33 -23 -17 -69 -51 -102 -75 -53 -38 -111 -111 -111
-141 0 -6 -22 -43 -48 -83 -27 -40 -56 -89 -65 -108 -10 -19 -22 -42 -27 -50
-12 -19 -61 -128 -90 -200 -12 -30 -27 -66 -33 -80 -6 -14 -12 -34 -14 -45 -1
-11 -11 -56 -22 -100 -11 -44 -23 -135 -27 -202 -6 -103 -4 -129 10 -167 10
-25 15 -50 12 -55 -7 -10 24 -67 61 -116 55 -72 70 -90 103 -128 71 -80 203
-208 245 -237 24 -16 45 -33 47 -37 1 -5 28 -20 58 -35 30 -16 61 -37 68 -48
7 -11 20 -20 30 -20 9 0 61 -29 115 -65 54 -35 102 -64 106 -62 4 1 30 -12 57
-29 94 -60 144 -86 169 -89 49 -5 147 26 207 65 60 40 86 48 104 31 17 -17
186 -101 212 -106 15 -2 38 -13 52 -23 14 -10 54 -34 90 -52 36 -19 72 -39 80
-46 8 -6 67 -38 130 -72 63 -33 160 -83 215 -112 55 -29 111 -61 124 -71 13
-11 32 -19 42 -19 11 0 19 -4 19 -9 0 -5 35 -26 78 -46 42 -20 84 -40 92 -46
8 -5 28 -17 43 -27 15 -9 58 -36 95 -60 37 -23 87 -52 112 -64 25 -12 60 -32
79 -45 19 -13 46 -23 61 -23 27 0 28 -1 40 -97 7 -57 20 -112 31 -131 11 -18
19 -41 19 -51 0 -23 32 -65 86 -113 10 -9 24 -23 30 -30 24 -28 237 -200 258
-207 6 -2 21 -13 33 -25 18 -17 76 -49 215 -117 10 -5 24 -9 32 -9 7 0 24 -9
38 -19 13 -11 44 -24 68 -31 25 -6 74 -25 110 -42 99 -48 107 -51 118 -44 6 3
13 2 17 -4 3 -5 14 -10 24 -10 9 0 22 -5 29 -12 16 -16 164 -66 180 -60 7 2
19 17 27 33 10 17 24 29 36 29 11 0 33 9 49 20 17 11 43 29 60 40 16 11 32 20
36 20 3 0 43 28 88 63 44 35 88 66 96 70 49 23 262 192 274 218 5 10 17 19 27
19 9 0 38 20 63 45 26 25 59 51 74 59 31 16 262 214 262 225 0 4 11 11 24 17
22 8 100 72 178 146 15 14 32 28 37 30 5 1 42 35 82 73 40 39 79 72 86 75 24
10 153 133 153 146 0 8 15 20 33 28 17 7 79 60 137 116 58 56 110 104 117 108
6 4 35 30 64 57 30 28 61 55 71 60 39 23 239 209 478 445 66 65 97 107 140
183 6 9 15 25 20 35 43 75 104 232 116 297 3 22 10 45 14 50 9 12 24 122 21
153 -1 13 2 29 8 36 14 17 21 226 11 317 -4 37 -15 81 -24 99 -8 18 -13 36
-11 41 3 4 -10 30 -30 57 -19 27 -35 54 -35 60 0 6 -24 29 -52 52 -29 22 -61
47 -70 55 -27 22 -129 75 -144 75 -8 0 -14 4 -14 8 0 9 -131 72 -151 72 -8 0
-25 9 -39 20 -14 11 -35 20 -46 20 -12 0 -27 6 -33 14 -7 8 -27 18 -44 22 -33
7 -134 46 -177 69 -14 7 -50 18 -80 24 -30 6 -80 18 -110 26 -73 20 -126 19
-158 -3 -44 -30 -111 -62 -130 -62 -9 1 -35 9 -57 20 -22 11 -49 19 -61 20
-11 0 -29 7 -40 15 -10 8 -32 15 -47 15 -15 0 -30 7 -33 15 -4 8 -12 15 -19
15 -7 0 -46 17 -87 38 -40 20 -93 46 -118 56 -25 10 -63 27 -85 37 -23 9 -52
20 -65 24 -14 3 -35 14 -46 23 -21 17 -21 17 -4 103 9 48 20 95 24 104 6 17
19 77 85 396 16 75 32 142 35 148 4 6 13 46 20 88 7 43 30 132 49 199 20 66
39 140 42 165 4 24 10 53 15 64 18 43 59 195 77 287 3 17 12 28 22 29 9 0 32
2 51 3 19 1 40 -1 45 -4 60 -39 566 -62 790 -36 97 11 299 58 317 74 9 8 21
11 26 8 13 -8 158 40 198 65 17 10 38 19 47 19 8 0 28 6 44 14 15 8 60 24 98
37 39 12 86 31 105 41 19 10 44 18 55 18 12 0 25 4 30 8 6 5 26 15 45 22 56
21 164 72 180 85 8 7 28 16 45 19 25 6 234 103 300 139 11 6 34 18 50 27 17 8
41 26 53 38 13 13 51 36 86 53 72 35 161 116 183 169 8 19 21 42 29 51 9 10
14 41 15 90 1 100 0 106 -17 120 -8 6 -14 17 -14 24 0 16 -91 105 -126 123
l-25 13 26 42 c15 23 33 58 42 77 8 19 24 46 35 60 27 35 118 191 118 203 0 5
14 29 30 54 17 24 30 47 30 52 0 4 11 22 25 41 14 19 25 40 25 48 0 9 11 30
26 49 14 18 32 48 40 66 9 17 29 55 45 82 16 28 36 64 44 80 9 17 27 45 40 64
14 19 25 42 25 51 0 10 7 23 15 30 18 15 60 86 154 265 30 55 59 107 65 115
14 17 79 128 121 205 15 28 36 62 46 77 11 14 19 33 19 41 0 8 7 20 15 27 8 6
17 21 21 32 3 11 19 39 35 63 16 24 29 45 29 48 0 3 34 63 75 132 41 70 75
130 75 134 0 3 15 29 33 57 46 72 67 110 67 123 0 7 8 21 18 32 11 10 25 32
33 47 13 27 103 184 120 212 5 8 19 34 30 57 11 23 24 45 29 48 6 3 10 14 10
24 0 10 9 26 19 35 11 10 27 34 37 54 9 21 25 49 35 64 11 14 19 33 19 42 0 9
4 16 10 16 5 0 12 11 16 24 3 14 14 32 25 42 10 9 19 24 19 33 0 9 7 25 15 35
8 11 15 28 15 38 0 9 9 22 19 28 11 5 23 20 26 32 4 13 16 32 26 43 10 11 27
40 38 65 11 25 30 59 41 75 11 17 20 38 20 48 0 22 11 22 42 -2 28 -23 130
-31 163 -14 11 6 26 8 32 6 7 -3 45 12 85 33 40 20 85 43 99 51 48 24 184 176
257 286 42 65 136 258 153 317 7 25 16 50 19 55 4 6 13 39 19 75 7 36 17 76
22 89 13 32 22 127 22 243 0 97 -25 228 -49 258 -6 8 -15 25 -18 37 -16 53
-156 134 -234 135 -17 0 -35 6 -40 12 -7 12 -56 25 -112 30 -14 1 -41 9 -60
18 -19 8 -67 23 -105 32 -96 23 -97 24 -86 77 10 47 57 193 72 221 5 10 9 26
9 35 0 15 12 54 40 128 7 20 14 43 96 315 25 85 50 164 54 175 5 11 22 67 39
125 38 128 76 253 104 340 24 76 22 67 43 152 l17 66 -59 74 c-32 40 -73 86
-91 101 -18 16 -33 33 -33 39 0 14 -63 88 -76 88 -6 0 -20 17 -32 38 -12 20
-67 91 -123 157 -55 66 -135 162 -176 213 -75 94 -95 117 -135 159 -24 25 -26
12 36 212 14 47 26 94 26 106 0 22 -35 59 -134 140 -27 22 -114 104 -195 181
-80 78 -165 157 -188 177 -23 19 -49 42 -58 51 -9 9 -20 16 -25 16 -5 0 -42 4
-82 10 -40 5 -95 12 -123 16 -27 3 -79 8 -114 9 l-63 4 -5 112 c-5 130 -15
157 -78 201 -30 21 -46 41 -51 62 -11 52 -50 124 -89 165 -39 41 -76 56 -170
66 -55 6 -67 3 -128 -26 -37 -17 -67 -35 -67 -40 0 -5 -6 -9 -13 -9 -18 0 -47
-32 -47 -52 0 -9 -7 -21 -15 -28 -8 -7 -15 -21 -15 -31 0 -12 -10 -21 -27 -25
-66 -14 -153 -77 -153 -110 0 -7 -11 -32 -25 -55 -17 -30 -25 -59 -25 -92 0
-41 -3 -48 -17 -43 -10 3 -67 7 -128 10 -60 3 -128 8 -150 11 -22 3 -76 7
-120 9 -94 5 -188 24 -179 37 5 9 15 212 16 364 1 62 -4 152 -17 295 -7 71
-35 233 -45 255 -8 20 -19 61 -27 100 -2 11 -8 24 -13 29 -6 6 -10 22 -10 36
0 14 -7 35 -15 46 -8 10 -15 25 -15 32 0 8 -6 28 -14 45 -7 18 -22 52 -32 77
-10 25 -40 78 -66 118 -26 40 -48 76 -48 81 0 4 -12 21 -27 38 -16 16 -44 47
-64 69 -106 114 -304 254 -360 254 -10 0 -21 5 -24 10 -3 6 -17 10 -29 10 -13
0 -29 6 -35 14 -16 20 -62 28 -177 31 -151 5 -196 -9 -338 -103 l-69 -46 -16
24 c-28 41 -112 118 -145 131 -17 7 -37 19 -44 26 -7 7 -19 13 -26 13 -7 0
-33 10 -57 23 -83 44 -149 59 -264 62 -60 2 -126 -1 -145 -6z m311 -139 c145
-59 227 -114 275 -186 l25 -37 -33 -35 c-18 -19 -41 -43 -50 -54 -10 -10 -18
-24 -18 -32 0 -7 -11 -21 -25 -30 -14 -9 -27 -27 -31 -41 -8 -33 -24 -32 -62
5 -18 17 -38 30 -46 30 -8 0 -27 11 -42 25 -15 14 -36 25 -48 26 -12 0 -30 3
-41 6 -44 12 -135 14 -186 4 -171 -34 -269 -81 -355 -173 -97 -103 -205 -284
-219 -368 -8 -45 -28 -68 -47 -52 -7 5 -28 12 -45 16 -80 15 -94 19 -99 28 -9
14 17 110 37 136 10 13 23 40 30 60 7 20 23 51 36 68 12 17 23 35 23 39 0 4
18 38 39 76 21 37 42 81 46 98 4 17 12 31 19 31 12 0 76 80 76 97 0 7 41 45
114 108 93 81 192 134 316 171 68 21 243 11 311 -16z m885 -124 c87 -23 181
-62 172 -72 -3 -2 -27 1 -54 6 -27 6 -64 13 -82 16 -31 6 -89 -7 -187 -42
-121 -42 -280 -166 -361 -280 -94 -131 -213 -415 -214 -507 0 -37 -21 -43 -69
-20 -36 16 -41 22 -41 54 0 20 3 39 7 43 9 9 33 78 33 97 0 8 11 37 24 65 14
27 37 78 51 114 15 35 36 75 46 89 10 13 19 29 19 36 0 7 7 18 15 25 8 7 13
16 10 20 -7 12 209 234 274 283 59 44 134 76 196 84 22 3 42 7 44 9 8 7 24 4
117 -20z m-980 -331 c10 -8 28 -15 39 -15 11 0 27 -8 36 -17 8 -10 30 -30 48
-46 l33 -27 -27 -58 c-15 -31 -38 -93 -50 -137 -13 -44 -30 -99 -38 -122 -9
-22 -13 -44 -10 -47 4 -3 -2 -24 -12 -46 -14 -31 -24 -40 -44 -41 -47 -1 -117
-42 -155 -92 -40 -52 -86 -142 -86 -167 0 -9 -5 -21 -12 -28 -18 -18 -38 -81
-45 -145 -6 -58 -6 -59 -35 -53 -15 3 -57 11 -92 17 l-64 12 4 36 c2 20 6 96
9 170 4 124 3 138 -17 175 -12 23 -33 53 -47 68 -20 23 -23 32 -14 50 5 13 21
57 34 98 13 41 29 86 36 100 7 14 13 30 13 36 0 6 9 19 20 29 11 10 20 24 20
32 0 7 5 13 10 13 6 0 10 6 10 13 0 16 99 117 115 117 7 0 18 6 24 14 7 8 26
22 44 31 18 9 43 23 57 31 35 19 170 19 196 -1z m1064 -183 c47 -23 61 -38
102 -104 63 -101 102 -211 113 -318 2 -19 7 -64 11 -100 4 -36 9 -76 10 -90 6
-61 5 -402 -2 -475 -4 -44 -7 -90 -7 -102 1 -21 -3 -22 -36 -18 -20 2 -76 7
-126 11 -175 13 -181 15 -170 43 25 62 25 572 0 696 -4 17 -10 39 -15 50 -5
11 -11 37 -13 57 -3 20 -13 54 -22 75 -10 21 -20 47 -24 58 -4 11 -25 56 -46
99 l-39 79 33 26 c72 56 136 59 231 13z m-330 -184 c7 -18 21 -51 30 -73 46
-103 58 -166 59 -315 0 -80 -3 -172 -8 -205 -16 -109 -68 -264 -84 -249 -4 4
-3 14 2 23 4 9 7 88 7 176 -1 153 -2 162 -27 202 -27 46 -102 108 -149 125
-35 12 -38 29 -11 66 10 15 31 62 47 106 16 43 38 88 49 100 12 11 29 33 38
49 23 35 32 34 47 -5z m-1810 -167 c0 -4 -10 -16 -22 -27 -74 -66 -174 -283
-205 -446 -3 -15 -11 -32 -18 -38 -14 -11 -107 -41 -113 -36 -5 6 25 158 41
202 8 21 26 75 42 119 15 44 36 91 46 104 11 13 19 32 19 41 0 10 9 20 20 23
11 3 20 12 20 21 0 9 1 16 3 16 1 0 18 6 38 13 43 15 129 20 129 8z m1204
-161 c4 -5 -9 -32 -31 -62 -84 -115 -132 -206 -167 -315 -19 -57 -28 -62 -73
-38 -15 9 -40 20 -55 25 -29 10 -29 9 10 115 8 22 15 47 16 55 2 28 80 173
108 201 16 15 41 29 56 31 39 5 126 -3 136 -12z m2789 -465 c-10 -13 -27 -25
-37 -25 -18 0 -18 2 4 25 32 34 58 34 33 0z m-4943 -39 c36 -2 107 -10 159
-17 72 -9 89 -14 75 -22 -73 -39 -220 -129 -274 -169 -111 -82 -145 -109 -264
-213 -44 -38 -77 -63 -74 -55 7 21 39 125 78 255 18 61 41 132 51 159 11 27
19 55 19 62 0 9 21 14 73 16 39 2 77 0 82 -4 6 -4 40 -9 75 -12z m4840 -132
c0 -2 -13 -33 -29 -69 -16 -35 -32 -77 -36 -95 -7 -30 -7 -30 -58 -25 -102 12
-99 10 -80 53 8 20 21 48 26 62 24 56 52 75 117 77 33 1 60 0 60 -3z m-2160
-119 c217 -23 410 -39 445 -37 17 1 48 -3 70 -8 33 -8 101 -16 175 -21 8 -1
83 -8 165 -16 83 -7 179 -16 215 -19 36 -2 73 -7 83 -10 9 -3 61 -8 115 -11
105 -5 122 -7 257 -24 50 -6 108 -13 130 -16 22 -3 76 -7 120 -8 44 -2 121 -9
170 -15 50 -7 124 -13 165 -15 41 -2 102 -8 135 -13 33 -6 98 -13 145 -16 47
-4 99 -9 115 -12 37 -6 103 -13 176 -18 31 -3 101 -9 155 -14 55 -5 108 -10
119 -10 55 -1 71 -13 55 -42 -6 -11 -20 -56 -31 -98 -11 -42 -24 -81 -28 -87
-5 -5 -16 -44 -26 -85 -10 -41 -22 -82 -27 -90 -4 -8 -17 -46 -28 -85 -21 -76
-63 -212 -79 -260 -10 -28 -27 -86 -117 -380 -20 -66 -45 -151 -56 -190 -10
-38 -23 -79 -28 -90 -5 -11 -13 -36 -19 -55 -6 -19 -22 -71 -35 -115 -14 -44
-39 -127 -56 -185 -17 -58 -37 -123 -45 -145 -7 -22 -21 -67 -30 -100 -9 -33
-23 -76 -31 -95 -7 -19 -18 -55 -24 -80 -6 -25 -15 -54 -20 -65 -5 -11 -19
-56 -31 -99 -11 -44 -25 -87 -29 -95 -5 -9 -18 -50 -30 -91 -34 -121 -76 -258
-155 -510 -14 -47 -36 -119 -47 -160 -11 -41 -24 -79 -28 -85 -4 -5 -11 -26
-14 -45 -7 -33 -25 -94 -80 -260 -13 -41 -31 -100 -40 -130 -8 -30 -22 -75
-30 -100 -8 -25 -26 -85 -41 -135 -15 -49 -39 -130 -55 -180 -15 -49 -38 -124
-50 -165 -12 -41 -33 -106 -45 -145 -13 -38 -31 -97 -40 -130 -9 -33 -25 -85
-35 -115 -32 -97 -67 -214 -75 -250 -4 -19 -11 -39 -15 -45 -4 -5 -17 -46 -29
-90 -12 -44 -26 -89 -31 -100 -5 -11 -18 -51 -28 -90 -42 -150 -63 -221 -72
-240 -5 -11 -17 -47 -25 -80 -9 -33 -23 -78 -31 -100 -7 -22 -15 -53 -17 -70
-4 -29 -6 -30 -48 -27 -24 1 -53 7 -64 12 -33 14 -124 40 -215 60 -184 40
-276 63 -310 76 -19 8 -48 16 -65 18 -16 3 -43 8 -60 12 -16 3 -37 7 -45 8 -8
1 -24 7 -36 14 -20 10 -53 19 -99 27 -11 1 -36 9 -55 17 -48 20 -270 73 -294
70 -10 -1 -24 2 -30 7 -14 12 -171 55 -276 77 -41 9 -79 19 -85 24 -5 5 -32
13 -60 18 -80 16 -338 82 -360 92 -11 5 -40 12 -65 15 -25 4 -81 17 -125 30
-128 38 -234 65 -254 65 -10 0 -32 7 -47 15 -16 8 -41 15 -56 15 -15 0 -51 9
-80 20 -30 11 -77 20 -109 20 -43 0 -60 5 -74 20 -10 11 -26 20 -35 20 -26 0
-163 35 -187 48 -12 7 -53 15 -92 18 -40 4 -76 13 -82 20 -6 8 -24 14 -39 14
-15 0 -41 7 -56 15 -16 8 -47 15 -68 15 -22 0 -47 6 -55 14 -9 7 -41 18 -71
24 -75 14 -225 51 -280 69 -52 17 -79 24 -215 59 -176 44 -219 55 -245 60 -14
3 -32 8 -40 11 -8 3 -19 7 -25 8 -5 0 -21 4 -35 7 -14 4 -52 12 -85 18 -33 7
-70 19 -83 27 -13 8 -30 12 -39 9 -8 -3 -24 1 -36 9 -12 8 -37 15 -57 15 -19
0 -43 7 -54 15 -10 7 -44 17 -75 20 -31 4 -70 13 -86 20 -17 8 -80 25 -140 40
-160 37 -221 54 -300 82 -38 14 -88 29 -110 35 -22 5 -48 14 -59 19 -10 6 -36
7 -57 4 -48 -8 -58 8 -35 57 9 19 18 45 21 57 6 31 24 91 35 116 5 11 16 47
25 80 9 33 20 71 25 85 4 14 24 79 45 145 20 66 43 140 51 165 20 61 66 214
129 430 15 52 36 118 46 145 10 28 34 106 55 175 20 69 47 158 60 199 13 40
24 80 24 87 0 8 4 14 9 14 9 0 34 -71 46 -130 12 -61 55 -192 108 -325 153
-389 453 -761 777 -966 30 -19 64 -40 75 -47 11 -7 74 -39 140 -72 126 -61
260 -110 360 -129 33 -7 74 -16 90 -22 98 -30 469 -40 622 -17 43 7 92 11 108
10 17 -1 73 -4 125 -7 88 -5 366 10 400 21 8 3 53 7 99 10 110 6 246 28 293
48 21 9 48 16 60 16 22 0 260 144 266 161 2 5 8 9 14 9 6 0 32 17 57 37 280
227 486 456 666 743 59 93 178 325 196 378 6 20 16 42 20 48 5 6 17 35 28 65
10 30 35 100 55 156 20 56 41 126 47 155 6 29 17 73 25 98 8 25 23 101 34 170
10 69 22 136 25 150 25 108 17 706 -10 750 -3 4 -7 28 -10 51 -13 110 -66 329
-95 394 -5 11 -18 53 -30 93 -12 40 -37 95 -55 122 -19 28 -36 58 -39 68 -3 9
-16 28 -28 42 -13 14 -45 58 -72 99 -27 40 -58 78 -68 84 -10 7 -18 16 -18 21
0 27 -289 336 -314 336 -9 0 -16 6 -16 14 0 8 -15 26 -32 40 -49 40 -94 77
-135 114 -20 17 -41 32 -47 32 -12 0 -56 40 -56 51 0 8 45 6 160 -6z m-2084
-198 c35 -26 47 -43 60 -87 39 -131 -27 -242 -199 -334 -98 -52 -252 -94 -284
-77 -10 6 -31 12 -46 16 -32 6 -97 99 -97 137 0 21 16 57 57 133 22 40 139
155 157 155 9 0 20 9 26 20 6 11 19 20 28 20 10 0 22 4 28 8 9 9 82 36 119 46
45 11 108 -4 151 -37z m-639 -619 c19 -18 23 -30 20 -53 -3 -16 -8 -49 -12
-71 -4 -23 -18 -54 -31 -69 -13 -15 -26 -37 -30 -48 -5 -17 -49 -83 -86 -132
-5 -5 -31 -39 -58 -75 -27 -36 -54 -70 -60 -77 -5 -7 -10 -15 -10 -19 0 -4
-11 -22 -25 -40 -14 -18 -25 -35 -25 -39 0 -3 -11 -22 -23 -43 -13 -20 -39
-75 -58 -122 -50 -123 -89 -190 -115 -196 -54 -14 -115 64 -110 141 5 58 18
125 27 131 5 3 9 20 9 39 0 19 4 44 9 57 5 13 17 52 27 88 9 36 23 76 30 90 7
14 24 50 38 80 43 89 75 144 96 162 11 9 20 22 20 30 0 19 75 107 120 140 55
41 107 57 169 53 39 -3 60 -10 78 -27z m1661 -581 c35 -3 75 -13 88 -21 13 -9
32 -16 42 -16 21 0 64 -16 149 -56 28 -13 58 -24 66 -24 24 0 205 -192 245
-260 14 -25 37 -56 49 -70 12 -13 25 -37 28 -52 4 -15 11 -28 16 -28 5 0 9
-11 9 -24 0 -14 5 -28 10 -31 17 -11 60 -103 60 -129 0 -14 5 -28 10 -31 6 -4
8 -15 5 -25 -3 -11 -2 -27 3 -37 15 -27 22 -123 22 -265 -1 -129 -20 -220 -56
-272 -8 -11 -14 -30 -14 -42 0 -12 -19 -57 -42 -100 -23 -44 -51 -96 -61 -117
-11 -21 -37 -56 -58 -78 -22 -23 -39 -44 -39 -48 0 -3 -15 -22 -33 -41 -18
-19 -46 -53 -62 -75 -16 -22 -43 -51 -59 -65 -16 -14 -37 -33 -45 -42 -9 -10
-23 -18 -32 -18 -9 0 -22 -7 -29 -15 -7 -8 -19 -15 -26 -15 -8 0 -14 -4 -14
-10 0 -5 -6 -10 -14 -10 -8 0 -21 -7 -30 -15 -20 -20 -110 -65 -130 -65 -9 0
-16 -5 -16 -11 0 -6 -6 -9 -12 -6 -7 2 -29 -3 -48 -11 -19 -8 -44 -16 -55 -18
-11 -2 -33 -5 -50 -8 -16 -2 -39 -8 -49 -12 -14 -5 -17 -4 -11 5 6 10 2 11
-16 6 -48 -16 -93 -24 -102 -18 -5 3 -30 7 -55 9 -110 10 -129 13 -167 27 -22
7 -45 12 -50 10 -6 -2 -21 6 -33 17 -11 11 -28 20 -36 20 -8 0 -32 16 -53 35
-21 19 -43 35 -50 35 -6 0 -25 11 -41 25 -17 14 -33 25 -36 25 -4 0 -21 15
-38 33 -18 17 -34 31 -35 30 -9 -8 -23 -1 -23 11 0 8 -16 20 -35 27 -19 7 -35
19 -35 26 0 8 -7 16 -15 19 -8 4 -15 14 -15 23 0 10 -7 26 -15 37 -8 10 -15
28 -15 39 -1 27 -26 59 -40 50 -7 -4 -10 -1 -9 6 2 8 -3 32 -10 54 -13 40 -17
52 -44 115 -8 19 -18 51 -22 70 -4 19 -11 40 -15 45 -9 12 -22 105 -23 165 -1
89 11 246 21 270 5 14 12 50 16 80 4 30 13 69 21 85 7 17 21 55 30 85 28 97
79 203 122 256 18 23 33 45 33 50 0 5 18 29 40 54 22 25 40 51 40 58 0 8 5 10
12 6 7 -5 9 -2 5 9 -4 12 -2 14 10 10 10 -4 14 -2 10 4 -4 6 -2 13 3 15 6 2
12 13 13 25 0 12 4 20 7 18 3 -2 18 15 35 36 70 94 213 151 364 146 45 -1 81
2 81 7 0 4 7 3 15 -4 12 -10 16 -10 20 1 4 11 33 14 128 13 67 -1 151 -4 185
-7z m-2701 -1029 c-3 -8 -6 -5 -6 6 -1 11 2 17 5 13 3 -3 4 -12 1 -19z m1057
-118 c8 -13 7 -13 -7 0 -17 16 -22 39 -17 80 2 17 5 10 9 -20 4 -25 10 -52 15
-60z m2986 -22 c-37 -125 -80 -250 -106 -305 -13 -30 -24 -57 -24 -60 0 -8
-125 -259 -143 -288 -6 -10 -30 -49 -52 -85 -22 -36 -43 -69 -47 -75 -4 -5
-38 -52 -75 -104 -82 -113 -209 -257 -326 -367 -82 -78 -277 -231 -348 -273
-100 -59 -229 -128 -269 -143 -25 -10 -53 -22 -63 -28 -30 -18 -178 -68 -268
-91 -156 -39 -223 -49 -389 -55 -282 -11 -475 19 -710 109 -101 39 -250 112
-260 127 -3 4 -19 15 -37 24 -130 66 -410 331 -518 489 -94 137 -173 278 -206
364 -10 27 -9 27 20 -7 17 -19 52 -68 79 -108 148 -229 217 -317 347 -446 105
-103 161 -150 279 -229 96 -65 308 -167 346 -167 10 0 21 -4 24 -9 3 -4 20
-12 38 -16 18 -4 38 -9 43 -11 6 -2 37 -10 70 -17 33 -7 67 -16 75 -20 79 -32
454 -40 615 -12 50 8 104 17 120 20 60 10 168 45 185 60 9 8 33 15 53 15 20 0
37 4 37 9 0 5 15 12 34 15 19 4 45 15 59 26 14 11 32 20 40 20 18 0 143 64
167 85 9 8 22 15 28 15 14 0 103 57 173 110 26 19 59 44 75 55 15 11 40 31 55
45 14 14 38 34 53 44 15 11 34 32 44 48 9 15 22 28 28 28 12 0 174 168 174
181 0 4 21 29 46 55 46 48 179 238 191 272 3 9 14 26 24 37 18 21 171 316 181
350 3 11 15 43 27 70 11 28 38 100 60 160 22 61 45 123 52 138 22 48 22 20 -1
-55z m-3022 27 c1 -14 -3 -25 -8 -25 -11 0 -14 33 -3 43 9 9 8 10 11 -18z m52
-97 c5 -37 24 -103 41 -147 17 -44 31 -84 32 -88 4 -22 94 -174 128 -215 21
-26 39 -50 39 -55 0 -4 14 -19 31 -33 17 -14 42 -42 55 -62 13 -21 30 -38 38
-38 7 0 20 -7 27 -17 13 -15 125 -111 174 -149 43 -32 240 -144 255 -144 7 0
24 -7 38 -15 24 -13 153 -53 192 -59 9 -1 20 -5 25 -8 6 -3 34 -9 63 -13 28
-4 52 -11 52 -15 0 -11 -153 -17 -205 -8 -22 3 -62 9 -90 12 -44 6 -71 12
-165 41 -55 18 -239 120 -305 170 -88 67 -198 182 -188 198 3 7 3 9 -2 5 -8
-8 -52 42 -47 54 1 5 -3 8 -9 8 -6 0 -9 6 -6 13 3 8 1 20 -5 28 -8 11 -9 10
-4 -4 3 -11 2 -16 -4 -12 -6 3 -10 13 -10 22 0 24 -31 83 -41 78 -5 -3 -11 7
-14 22 -10 45 -24 75 -34 69 -9 -6 -26 41 -22 58 1 5 -4 31 -11 58 -9 38 -14
45 -19 31 -6 -13 -8 -8 -7 17 0 19 -7 60 -14 90 -8 30 -14 75 -12 100 1 25 2
54 3 64 2 34 10 12 21 -56z m2464 -350 c-19 -81 -105 -321 -140 -390 -15 -29
-37 -67 -50 -84 -13 -17 -24 -38 -24 -47 0 -10 -3 -17 -7 -17 -5 0 -17 -13
-28 -30 -11 -16 -29 -31 -40 -34 -11 -3 -29 -13 -40 -23 -11 -10 -36 -30 -55
-43 -19 -13 -41 -30 -48 -37 -7 -7 -19 -13 -25 -13 -6 0 -25 -15 -42 -34 -30
-34 -152 -99 -167 -90 -4 3 -8 1 -8 -4 0 -12 -38 -23 -42 -12 -2 5 -25 -2 -53
-14 -27 -13 -75 -27 -105 -31 -30 -4 -61 -12 -67 -17 -16 -13 -236 -18 -244
-5 -4 5 -15 4 -29 -3 -16 -9 -25 -9 -33 -1 -6 6 -30 11 -54 11 -24 0 -43 4
-43 8 0 4 -16 8 -36 9 -20 1 -41 6 -47 12 -6 6 -22 11 -36 11 -15 0 -33 5 -41
10 -10 6 14 7 68 3 75 -5 255 10 292 25 8 3 32 7 53 8 21 1 43 6 50 12 7 5 34
15 61 21 51 12 105 36 231 98 85 42 143 76 180 106 6 4 42 31 80 60 79 58 268
246 311 310 16 23 34 48 41 54 6 7 21 29 34 50 13 21 29 44 35 51 7 6 16 22
20 34 6 21 53 98 59 98 2 0 -3 -28 -11 -62z m3771 -593 c44 -9 90 -21 103 -26
13 -5 34 -9 47 -9 14 0 25 -5 25 -10 0 -6 13 -9 29 -8 16 1 35 -3 43 -9 7 -6
33 -14 58 -17 25 -4 54 -11 65 -16 35 -15 123 -40 141 -40 9 0 38 -8 65 -17
50 -18 63 -37 32 -47 -25 -8 -139 -120 -193 -189 -52 -66 -81 -115 -146 -247
-26 -52 -53 -105 -61 -116 l-14 -22 -185 63 c-102 35 -205 73 -230 85 -24 12
-52 19 -61 16 -24 -9 -89 14 -72 25 12 8 12 11 -1 19 -8 5 -19 10 -25 10 -5 0
-3 -5 5 -10 20 -13 -1 -13 -34 0 -23 8 -26 7 -31 -18 -7 -31 -43 -109 -63
-133 -11 -14 -10 -19 5 -30 21 -16 29 -49 13 -49 -6 0 -8 -4 -5 -10 10 -16 -4
-12 -56 18 -45 25 -49 29 -44 57 14 69 29 131 36 140 10 14 39 97 39 112 0 7
13 41 29 75 16 35 31 70 35 78 3 8 15 29 26 45 11 17 23 36 26 43 4 7 18 26
33 41 14 16 49 56 76 89 28 33 56 61 63 61 6 1 12 5 12 9 0 4 18 22 41 39 33
26 45 30 67 23 15 -5 63 -16 107 -25z m-5322 -260 c15 -3 25 -10 22 -15 -4 -7
-13 -6 -25 0 -10 5 -28 10 -39 10 -12 0 -21 4 -21 9 0 5 8 8 18 6 9 -2 30 -6
45 -10z m-1503 -1185 c0 -5 -4 -10 -9 -10 -6 0 -13 5 -16 10 -3 6 1 10 9 10 9
0 16 -4 16 -10z m190 -60 c0 -5 -4 -10 -9 -10 -6 0 -13 5 -16 10 -3 6 1 10 9
10 9 0 16 -4 16 -10z m56 -19 c5 -6 50 -19 99 -30 50 -12 97 -23 105 -26 8 -3
39 -11 68 -18 54 -13 54 -13 28 -27 -20 -10 -23 -16 -14 -23 9 -6 7 -7 -5 -3
-11 3 -30 9 -43 12 -15 4 -23 12 -22 22 2 10 -5 17 -17 19 l-20 3 20 -9 c11
-5 16 -10 10 -10 -20 -2 -90 21 -105 33 -8 7 -37 19 -65 26 -27 7 -59 19 -70
27 -19 13 -19 13 1 13 11 0 24 -4 30 -9z m361 -97 c-3 -3 -12 -4 -19 -1 -8 3
-5 6 6 6 11 1 17 -2 13 -5z m2588 -1324 c3 -6 -4 -10 -17 -10 -18 0 -20 2 -8
10 19 12 18 12 25 0z m1825 -170 c19 0 50 -9 67 -20 31 -18 32 -21 21 -47 -7
-16 -15 -30 -18 -33 -9 -9 -44 -64 -57 -90 -7 -14 -24 -43 -38 -65 -14 -22
-33 -56 -43 -75 -9 -19 -24 -46 -33 -60 -35 -55 -132 -223 -164 -285 -19 -36
-50 -86 -67 -112 -18 -27 -41 -64 -51 -83 -27 -53 -44 -81 -56 -93 -6 -6 -11
-19 -11 -29 0 -10 -4 -18 -10 -18 -5 0 -18 -17 -28 -37 -24 -48 -128 -224
-142 -240 -5 -7 -10 -16 -10 -20 0 -15 -34 -74 -99 -175 -61 -95 -64 -97 -94
-91 -28 5 -146 46 -215 74 -13 5 -31 9 -41 9 -10 0 -24 7 -31 15 -7 8 -24 15
-39 15 -15 0 -31 4 -36 9 -6 5 -32 18 -58 28 l-49 19 34 30 c42 37 148 162
148 175 0 5 6 9 13 9 6 0 34 28 62 63 65 81 57 72 153 173 45 48 82 90 82 95
0 4 15 22 33 41 34 36 93 102 167 189 25 29 73 84 107 123 34 39 70 87 80 106
10 19 35 51 56 71 20 20 37 43 37 52 0 10 6 17 13 17 7 0 24 15 37 33 13 17
39 48 57 67 82 89 113 125 113 131 0 18 34 40 54 35 12 -3 37 -6 56 -6z
m-9060 -230 c0 -5 6 -10 13 -10 7 0 46 -20 86 -45 40 -25 77 -45 82 -45 6 0
22 -8 37 -18 26 -18 76 -50 134 -85 15 -10 33 -17 40 -17 7 0 33 -14 57 -30
24 -17 52 -30 61 -30 10 0 29 -9 43 -20 14 -11 32 -20 40 -20 8 0 20 -7 27
-15 7 -8 19 -15 28 -15 8 0 23 -6 31 -13 9 -8 32 -20 51 -27 19 -7 46 -21 60
-30 14 -8 54 -29 90 -45 36 -16 70 -35 77 -43 6 -7 17 -15 25 -16 35 -6 59
-19 68 -37 6 -10 17 -19 25 -19 8 0 44 -16 79 -36 36 -19 70 -33 75 -30 5 4
16 -1 25 -9 8 -9 36 -25 60 -36 25 -11 48 -24 51 -29 3 -6 18 -10 33 -10 15 0
38 -9 52 -20 14 -11 33 -20 43 -20 30 0 14 -22 -49 -67 -155 -111 -169 -114
-274 -62 -47 24 -74 36 -160 72 -8 4 -22 11 -30 16 -8 5 -31 16 -50 24 -86 37
-175 81 -178 89 -2 4 -21 11 -43 14 -21 4 -49 16 -61 28 -26 25 -142 86 -164
86 -8 0 -17 7 -20 15 -4 8 -10 15 -15 15 -10 0 -151 69 -289 140 -52 27 -102
50 -110 50 -8 0 -21 9 -28 20 -7 11 -23 20 -37 20 -13 0 -30 9 -38 20 -8 11
-25 23 -38 25 -13 3 -29 12 -35 20 -6 8 -29 21 -50 29 -52 17 -54 51 -5 78 54
31 121 89 137 120 14 27 44 39 44 18z m-173 -346 c38 -20 77 -43 88 -50 11 -8
29 -14 40 -14 11 0 26 -9 33 -20 7 -11 20 -20 30 -20 10 0 23 -5 29 -11 15
-15 33 -25 150 -83 54 -26 105 -52 113 -57 39 -23 316 -159 324 -159 5 0 17
-6 25 -14 23 -20 111 -66 127 -66 8 0 14 -4 14 -9 0 -8 110 -61 160 -76 14 -4
27 -10 30 -14 10 -12 51 -31 98 -47 86 -28 132 -54 142 -78 5 -13 14 -27 19
-31 6 -3 11 -21 11 -40 0 -19 4 -44 9 -57 5 -13 17 -52 27 -88 9 -36 29 -92
44 -125 15 -33 35 -87 46 -120 10 -33 27 -66 36 -73 11 -8 18 -26 18 -48 0
-35 -8 -40 -38 -25 -21 11 -130 43 -157 47 -11 1 -33 9 -50 18 -16 9 -41 16
-53 16 -13 0 -36 8 -50 18 -15 10 -43 24 -62 31 -19 8 -49 20 -67 27 -17 8
-37 14 -45 14 -7 0 -28 9 -46 20 -18 11 -43 20 -56 20 -13 0 -40 11 -61 25
-20 14 -51 29 -69 32 -17 3 -33 9 -36 12 -11 13 -73 41 -90 41 -10 0 -20 4
-22 8 -4 11 -86 52 -103 52 -8 0 -15 4 -15 10 0 5 -11 12 -25 16 -13 3 -29 12
-36 20 -6 8 -22 14 -35 14 -13 0 -24 4 -24 10 0 10 -72 50 -91 50 -11 0 -39
20 -103 72 -18 16 -43 49 -55 75 -12 27 -26 55 -31 63 -5 8 -39 78 -76 155
-117 249 -133 287 -160 380 -9 33 -23 72 -31 88 -18 36 -7 34 74 -9z m1780
-586 c19 -91 33 -142 48 -175 8 -17 15 -39 15 -49 0 -10 8 -36 18 -58 11 -23
26 -66 36 -97 9 -31 23 -62 31 -69 7 -6 12 -17 9 -24 -2 -6 7 -34 21 -61 14
-28 25 -57 25 -66 0 -8 7 -24 15 -35 22 -29 19 -62 -7 -69 -13 -3 -41 -10 -63
-16 -22 -6 -63 -19 -90 -30 -28 -10 -62 -19 -76 -19 -22 0 -26 4 -27 35 -1 19
-8 45 -16 57 -7 13 -22 49 -31 80 -10 32 -24 63 -31 69 -8 6 -14 19 -14 28 0
13 -20 81 -50 166 -4 11 -13 38 -20 60 -7 22 -18 47 -25 55 -7 8 -15 35 -19
60 -6 39 -3 48 19 73 14 15 40 34 58 42 49 23 100 54 122 76 30 29 40 23 52
-33z m353 -470 c84 -41 126 -58 143 -58 9 0 19 -4 22 -10 3 -5 17 -10 31 -10
41 0 27 -17 -18 -22 -46 -6 -168 -56 -168 -70 0 -4 -6 -8 -14 -8 -11 0 -13 9
-9 35 3 19 1 40 -5 47 -8 11 -52 116 -52 126 0 4 0 4 70 -30z m1805 -348 c54
-23 95 -37 128 -44 15 -4 27 -11 27 -16 0 -6 8 -10 18 -10 9 0 48 -14 87 -30
38 -17 76 -30 85 -30 9 0 33 -9 55 -20 22 -11 49 -20 62 -20 12 0 37 -6 55
-14 18 -8 53 -20 78 -26 25 -7 54 -16 65 -21 11 -4 31 -11 45 -14 14 -3 41
-12 60 -20 19 -7 62 -21 95 -30 33 -10 67 -24 76 -31 8 -8 31 -14 51 -14 22 0
41 -7 53 -20 10 -11 25 -20 33 -20 18 0 79 -18 104 -31 10 -5 34 -9 53 -9 19
0 35 -4 35 -10 0 -5 9 -10 20 -10 18 0 48 -10 97 -32 11 -6 26 -8 31 -4 5 3
33 -4 61 -17 l50 -22 -57 -57 c-83 -84 -130 -118 -164 -118 -16 0 -57 10 -91
21 -34 12 -69 22 -77 23 -22 3 -68 16 -130 36 -30 10 -93 28 -140 41 -47 12
-89 26 -95 31 -5 4 -25 8 -45 8 -19 0 -45 7 -58 15 -12 9 -59 27 -104 41 -46
14 -90 29 -98 33 -8 5 -42 16 -75 25 -33 9 -69 21 -80 25 -11 5 -81 28 -155
51 -74 23 -147 48 -162 56 -14 8 -37 14 -51 14 -13 0 -30 7 -37 15 -7 8 -25
15 -40 15 -15 0 -33 6 -39 14 -7 8 -30 17 -51 21 -50 8 -56 26 -18 62 74 70
110 110 123 141 14 31 17 33 47 27 18 -4 51 -15 73 -25z m-240 -325 c85 -34
154 -57 175 -58 14 -1 29 -8 33 -14 4 -7 18 -13 31 -13 12 0 31 -6 41 -14 11
-8 24 -12 30 -9 7 2 18 -3 25 -12 7 -8 22 -15 34 -15 12 0 26 -4 32 -8 5 -5
38 -17 74 -27 36 -9 79 -23 95 -31 17 -7 53 -18 80 -25 28 -7 64 -18 81 -25
29 -13 120 -40 174 -52 14 -3 34 -11 45 -17 11 -7 43 -18 70 -25 28 -7 55 -17
61 -21 10 -8 107 -37 154 -46 14 -2 34 -8 45 -13 35 -15 99 -30 132 -30 17 0
35 -4 38 -10 3 -5 17 -10 31 -10 30 0 94 -65 94 -95 0 -24 92 -216 124 -260
12 -16 38 -61 57 -99 19 -38 41 -71 50 -73 14 -4 35 -60 27 -69 -2 -1 -43 4
-92 12 -49 8 -94 13 -100 11 -6 -2 -30 2 -54 9 -23 7 -49 11 -56 8 -8 -3 -25
0 -38 7 -22 12 -186 50 -293 69 -27 4 -70 16 -95 24 -24 9 -49 15 -56 12 -6
-2 -20 2 -31 9 -10 7 -37 16 -59 20 -48 8 -106 26 -118 37 -6 4 -22 8 -36 8
-14 0 -30 4 -36 8 -5 5 -29 14 -54 21 -25 7 -56 19 -70 26 -14 7 -43 16 -65
20 -22 4 -56 16 -75 25 -19 10 -47 24 -62 30 -24 12 -76 75 -158 196 -19 28
-51 74 -70 103 -19 28 -38 51 -42 51 -5 0 -8 4 -8 9 0 15 -62 111 -71 111 -5
0 -9 9 -9 19 0 11 -5 23 -11 26 -5 4 -28 45 -51 91 -22 46 -44 87 -49 90 -11
6 -12 37 -1 31 4 -2 16 -8 27 -12z m1875 -292 c0 -15 48 -126 70 -163 5 -8 19
-35 30 -60 11 -25 27 -56 35 -70 8 -14 28 -52 44 -84 17 -33 37 -66 44 -75 7
-9 21 -32 32 -51 10 -19 25 -41 32 -48 7 -7 13 -22 13 -33 0 -10 4 -19 8 -19
4 0 16 -13 25 -30 l18 -29 -38 -20 c-21 -11 -49 -25 -63 -31 -14 -7 -50 -25
-81 -41 -60 -31 -74 -35 -64 -20 3 5 1 12 -5 16 -5 3 -10 14 -10 24 0 9 -8 26
-17 37 -10 11 -31 44 -47 74 -16 30 -34 62 -41 70 -11 13 -91 168 -109 210
-11 24 -32 59 -48 77 -8 10 -21 33 -28 51 -17 43 -6 63 68 122 31 25 71 60 87
77 34 37 45 41 45 16z m-468 -1704 c1 -34 -1 -63 -5 -66 -5 -3 -8 -42 -7 -87
1 -44 -1 -103 -3 -131 -3 -27 -8 -93 -12 -145 -3 -52 -8 -103 -11 -113 -3 -10
4 -43 16 -72 20 -49 28 -57 75 -80 30 -14 57 -30 60 -35 3 -6 19 -10 36 -10
19 0 29 -5 29 -15 0 -8 19 -24 42 -36 23 -12 54 -29 68 -39 14 -9 54 -36 89
-60 36 -24 74 -43 85 -42 11 0 26 -4 33 -10 10 -8 24 -8 53 2 26 9 62 11 109
6 39 -3 90 -2 113 4 24 5 111 17 193 25 83 9 183 21 223 26 40 5 139 16 220
24 81 8 166 18 190 21 45 7 59 -9 20 -22 -13 -4 -37 -17 -54 -30 -17 -13 -35
-24 -39 -24 -4 0 -23 -11 -41 -25 -18 -14 -36 -25 -40 -25 -10 0 -104 -60
-127 -82 -11 -9 -29 -19 -42 -22 -12 -3 -51 -24 -86 -45 -35 -22 -89 -54 -119
-72 -30 -17 -57 -35 -60 -39 -5 -8 -49 -35 -111 -69 -20 -11 -49 -31 -65 -45
-16 -13 -58 -40 -92 -61 -34 -20 -69 -47 -78 -61 -9 -13 -26 -24 -37 -24 -20
0 -134 -81 -150 -107 -4 -7 -16 -13 -26 -13 -9 0 -27 -11 -39 -25 -12 -14 -28
-25 -35 -25 -8 0 -24 -11 -36 -24 -13 -14 -38 -32 -55 -41 -55 -28 -100 -56
-121 -75 -11 -10 -46 -36 -77 -57 -32 -22 -72 -51 -90 -66 -18 -15 -71 -57
-118 -93 -47 -37 -94 -77 -106 -88 -24 -25 -47 -43 -94 -76 -19 -13 -51 -40
-71 -60 -19 -20 -55 -50 -80 -66 -24 -16 -53 -44 -64 -60 -11 -17 -31 -39 -45
-47 -14 -9 -33 -22 -42 -29 -15 -11 -30 -6 -100 31 -46 24 -89 48 -96 54 -7 5
-34 21 -60 34 -51 26 -94 50 -157 88 -22 13 -67 38 -100 56 -32 17 -76 42 -97
55 -21 13 -42 24 -47 24 -6 0 -30 14 -54 30 -25 17 -49 30 -54 30 -6 0 -18 9
-27 19 -10 11 -30 23 -46 26 -15 3 -37 15 -49 27 -23 20 -123 78 -261 150 -41
22 -93 50 -115 63 -22 12 -86 46 -142 74 -56 29 -105 56 -108 60 -6 11 -130
71 -144 71 -6 0 -11 4 -11 8 0 4 -15 15 -32 23 -18 9 -69 34 -113 57 -44 22
-92 46 -107 51 -16 6 -28 14 -28 19 0 4 32 28 71 52 39 25 94 60 121 78 28 17
53 32 57 32 4 0 18 11 31 25 13 14 30 25 37 25 16 0 155 90 166 108 4 6 16 12
26 12 10 0 26 9 36 20 10 11 24 20 31 20 7 0 26 11 42 25 17 14 35 25 42 25 7
0 33 15 59 34 25 18 56 36 68 40 12 4 52 25 90 46 37 22 87 49 109 60 23 11
47 27 54 35 7 8 20 15 29 16 16 1 56 22 168 89 32 19 69 40 83 47 14 7 32 17
40 23 8 5 31 16 50 25 19 8 58 28 85 44 28 16 75 41 105 57 30 15 74 43 97 61
23 18 49 33 59 33 10 0 25 6 33 13 9 8 34 21 56 30 34 13 153 69 205 96 8 4
25 13 38 19 12 7 30 16 40 21 9 6 71 36 137 69 137 67 188 95 230 126 28 21
51 33 67 35 3 1 8 -26 10 -60z m-2557 -1534 c22 -12 67 -36 100 -52 33 -16
102 -55 154 -86 52 -31 102 -57 112 -57 10 0 20 -4 23 -9 6 -9 111 -70 206
-119 25 -12 63 -33 85 -46 104 -59 285 -156 290 -156 4 0 25 -13 48 -28 72
-49 148 -92 163 -92 8 0 14 -3 14 -7 0 -8 29 -27 110 -71 87 -47 105 -57 110
-62 3 -3 16 -11 30 -18 14 -7 39 -21 55 -32 17 -11 37 -22 45 -26 31 -12 65
-29 70 -35 16 -18 58 -39 77 -39 13 0 23 -4 23 -9 0 -5 21 -21 48 -37 26 -15
49 -28 51 -30 2 -2 -6 -15 -17 -31 -11 -15 -25 -48 -32 -73 -7 -25 -19 -57
-27 -72 -8 -16 -12 -28 -9 -28 2 0 -8 -26 -23 -57 -16 -32 -31 -68 -35 -80 -7
-22 -8 -22 -39 -7 -18 9 -72 40 -122 69 -237 138 -582 332 -685 385 -446 227
-576 290 -588 285 -7 -2 -11 -1 -8 3 7 12 -83 54 -97 46 -7 -4 -9 -3 -4 1 11
13 -100 66 -126 60 -12 -2 -35 2 -52 9 -16 8 -24 15 -17 15 17 1 15 21 -3 21
-21 0 -21 6 -5 245 12 175 20 245 29 244 3 0 24 -11 46 -24z m4874 -382 c-29
-31 -96 -63 -116 -56 -9 4 12 23 59 54 73 49 101 50 57 2z m-861 -742 c-6 -15
-74 -85 -104 -107 -30 -22 -74 -40 -74 -30 0 3 37 37 81 75 75 65 106 85 97
62z m-868 -768 c-26 -97 -71 -152 -127 -160 -29 -4 -42 -1 -53 12 -13 15 -4
26 84 111 55 52 101 92 104 90 3 -3 -1 -27 -8 -53z"/>
<path d="M9570 14466 c0 -2 7 -7 16 -10 8 -3 12 -2 9 4 -6 10 -25 14 -25 6z"/>
<path d="M9626 14451 c-8 -12 21 -34 34 -26 6 4 39 -7 73 -23 34 -17 69 -33
77 -36 8 -3 34 -21 56 -38 23 -18 60 -46 82 -63 23 -16 41 -34 42 -40 0 -5 29
-39 65 -74 35 -35 62 -68 59 -73 -3 -4 0 -8 6 -8 13 0 43 -67 35 -79 -2 -5 1
-14 9 -20 7 -6 19 -32 26 -56 7 -25 16 -45 21 -45 4 0 8 -8 8 -17 0 -10 7 -47
16 -83 19 -77 27 -127 33 -201 1 -11 6 -17 12 -14 10 6 9 113 -2 130 -4 6 -3
17 2 25 10 16 2 70 -11 85 -5 5 -9 21 -9 36 0 15 -4 31 -10 34 -5 3 -10 21
-10 39 0 17 -4 36 -8 42 -5 5 -19 34 -31 66 -22 55 -75 144 -105 176 -38 42
-55 59 -82 79 -16 12 -51 43 -78 68 -26 25 -57 45 -67 45 -11 0 -19 5 -19 10
0 6 -5 10 -11 10 -5 0 -35 12 -65 26 -33 15 -62 23 -74 19 -11 -4 -20 -2 -20
4 0 13 -47 15 -54 2z"/>
<path d="M10265 13520 c-3 -5 -1 -18 5 -27 9 -15 11 -15 7 -2 -3 9 0 22 6 28
8 8 8 11 0 11 -7 0 -15 -4 -18 -10z"/>
<path d="M10260 13434 c0 -14 4 -23 9 -20 5 3 7 15 4 26 -7 28 -13 25 -13 -6z"/>
<path d="M10251 13388 c-1 -10 -6 -18 -13 -18 -6 0 -8 -3 -5 -7 4 -3 3 -11 -1
-17 -5 -6 -6 -22 -2 -36 7 -23 8 -24 14 -5 4 11 11 29 15 40 5 11 5 29 0 40
-6 17 -8 17 -8 3z"/>
<path d="M10210 13225 c0 -8 -4 -15 -9 -15 -5 0 -7 -9 -4 -20 3 -11 1 -20 -4
-20 -11 0 -53 -72 -53 -91 0 -7 9 -4 24 10 14 13 22 30 19 40 -3 11 2 21 11
24 9 4 16 15 16 26 0 11 5 23 10 26 6 3 10 13 10 21 0 8 -4 14 -10 14 -5 0
-10 -7 -10 -15z"/>
<path d="M10120 13041 c-8 -3 -16 -13 -18 -21 -2 -8 -10 -19 -18 -23 -8 -4
-14 -17 -14 -28 0 -10 -9 -27 -19 -36 -11 -9 -18 -20 -15 -25 3 -4 1 -8 -4 -8
-6 0 -30 -19 -54 -42 -25 -24 -59 -54 -77 -68 -45 -34 -59 -48 -72 -71 -5 -11
-14 -17 -19 -14 -5 3 -19 -8 -31 -25 -13 -16 -32 -30 -43 -30 -17 0 -18 -2 -6
-10 13 -9 13 -10 0 -10 -8 0 -36 -11 -63 -25 -26 -14 -47 -23 -47 -21 0 3 -15
-1 -34 -9 -27 -11 -36 -12 -39 -2 -3 6 -6 4 -6 -7 -1 -14 -6 -17 -23 -13 -21
6 -48 -7 -48 -23 0 -18 234 56 250 80 3 4 15 10 28 14 12 4 22 12 22 17 0 5 5
9 11 9 6 0 25 11 43 25 18 14 37 25 42 25 19 0 164 152 164 171 0 11 4 18 8
15 12 -7 42 30 42 52 0 22 15 45 26 41 10 -4 37 47 32 60 -2 5 -10 6 -18 2z"/>
<path d="M9395 12530 l-40 -7 37 -2 c20 0 40 4 43 9 3 6 5 9 3 9 -2 -1 -21 -5
-43 -9z"/>
<path d="M9268 12523 c7 -3 16 -2 19 1 4 3 -2 6 -13 5 -11 0 -14 -3 -6 -6z"/>
<path d="M13641 11843 c-1 -6 -4 -20 -7 -30 -5 -17 -5 -17 6 0 6 10 9 23 6 30
-3 9 -5 9 -5 0z"/>
<path d="M13747 11839 c7 -7 15 -10 18 -7 3 3 -2 9 -12 12 -14 6 -15 5 -6 -5z"/>
<path d="M13835 11790 c11 -5 27 -9 35 -9 9 0 8 4 -5 9 -11 5 -27 9 -35 9 -9
0 -8 -4 5 -9z"/>
<path d="M13621 11774 c0 -11 3 -14 6 -6 3 7 2 16 -1 19 -3 4 -6 -2 -5 -13z"/>
<path d="M13589 11680 c-1 -16 -2 -35 -3 -42 -1 -6 5 -12 12 -14 7 -1 8 0 3 2
-5 3 -7 23 -4 44 3 22 3 40 -1 40 -3 0 -7 -13 -7 -30z"/>
<path d="M5635 2940 c11 -5 27 -9 35 -9 9 0 8 4 -5 9 -11 5 -27 9 -35 9 -9 0
-8 -4 5 -9z"/>
<path d="M10565 9810 c-4 -6 7 -10 25 -10 18 0 29 4 25 10 -3 6 -15 10 -25 10
-10 0 -22 -4 -25 -10z"/>
<path d="M3353 9370 c-9 -10 -8 -21 5 -49 17 -38 70 -101 85 -101 4 0 22 -13
40 -30 18 -16 37 -30 43 -30 6 0 17 -7 25 -16 7 -8 29 -24 48 -35 20 -11 54
-31 76 -44 22 -13 47 -24 55 -24 9 -1 23 -10 33 -21 9 -11 28 -20 41 -20 13 0
29 -7 36 -15 7 -8 18 -15 26 -15 7 0 19 -6 27 -14 26 -27 82 -56 106 -56 14 0
32 -6 40 -14 25 -22 108 -66 126 -66 8 0 18 -7 21 -15 4 -8 14 -15 24 -15 11
0 22 -4 25 -10 3 -5 16 -10 29 -10 12 0 32 -11 44 -25 12 -14 30 -25 40 -25
11 0 27 -9 37 -20 10 -11 26 -20 35 -20 10 0 29 -9 43 -20 14 -11 29 -20 34
-20 5 0 52 -22 104 -49 51 -26 105 -52 119 -56 14 -4 39 -18 56 -31 17 -13 38
-24 48 -24 9 0 25 -4 36 -10 11 -5 29 -14 40 -20 11 -5 29 -10 39 -10 11 0 23
-5 26 -10 9 -14 130 -70 153 -70 10 0 43 -13 73 -30 30 -16 64 -30 75 -30 12
0 27 -6 33 -14 7 -8 29 -17 51 -21 21 -4 46 -13 57 -20 10 -8 25 -15 33 -15 8
0 38 -12 65 -25 28 -14 59 -25 71 -25 11 0 24 -4 30 -9 5 -5 50 -23 99 -39 50
-17 111 -39 136 -50 25 -11 72 -25 105 -32 32 -7 70 -20 84 -30 14 -10 46 -25
72 -33 25 -9 61 -25 80 -37 18 -11 44 -20 57 -20 13 0 29 -6 35 -13 6 -8 40
-24 76 -36 36 -12 79 -28 95 -36 113 -50 155 -65 189 -65 16 0 34 -7 40 -16 6
-8 29 -19 51 -25 22 -5 47 -11 56 -13 8 -2 35 -13 60 -24 24 -12 64 -26 89
-32 25 -7 50 -15 55 -20 6 -4 30 -12 55 -18 47 -11 123 -36 177 -59 17 -7 38
-13 46 -13 9 0 19 -4 22 -10 3 -5 16 -10 28 -10 12 0 44 -8 72 -19 57 -21 94
-34 180 -64 33 -11 74 -26 90 -33 17 -7 53 -19 80 -26 28 -7 56 -18 63 -25 7
-6 34 -15 60 -19 26 -3 61 -13 77 -22 17 -8 38 -19 47 -23 9 -5 36 -12 58 -15
23 -4 58 -15 78 -25 20 -11 44 -19 54 -19 10 0 29 -6 41 -14 12 -8 51 -22 87
-31 36 -9 74 -21 85 -26 11 -4 45 -15 75 -24 30 -9 89 -27 130 -40 72 -24 148
-44 181 -49 9 -1 32 -12 53 -24 20 -12 44 -22 51 -22 8 0 49 -12 92 -26 42
-14 96 -27 120 -29 24 -1 49 -9 56 -18 7 -8 23 -17 37 -20 14 -3 83 -26 154
-51 72 -25 132 -43 135 -41 2 3 14 -1 25 -9 12 -7 39 -16 61 -19 44 -6 113
-23 160 -39 37 -13 200 -59 280 -79 21 -6 44 -14 50 -18 5 -5 32 -11 60 -15
27 -3 63 -10 80 -15 72 -22 166 -41 174 -36 5 2 27 -2 50 -10 23 -8 63 -15 89
-17 26 -1 52 -6 58 -10 39 -28 499 -27 552 1 10 5 55 18 100 29 55 14 105 34
145 60 34 21 96 60 139 86 42 25 110 79 152 119 64 62 77 80 91 129 18 63 13
116 -14 148 -9 11 -72 51 -141 89 l-125 69 -17 -37 c-10 -20 -19 -40 -21 -45
-1 -4 -21 4 -42 19 -22 14 -74 43 -115 63 -41 19 -98 53 -126 74 -28 21 -54
38 -58 38 -3 0 5 -19 19 -42 13 -24 30 -54 37 -68 7 -14 15 -27 18 -30 11 -11
99 -147 118 -183 26 -49 13 -88 -45 -141 -24 -21 -43 -44 -43 -52 0 -16 -85
-82 -117 -90 -13 -4 -23 -9 -23 -13 0 -4 -15 -15 -32 -26 -18 -10 -37 -24 -43
-31 -5 -6 -35 -14 -65 -18 -30 -3 -66 -9 -80 -12 -37 -9 -228 -6 -285 5 -27 5
-115 21 -195 35 -172 31 -201 38 -300 66 -90 26 -120 33 -229 55 -46 9 -93 22
-105 30 -27 18 -219 82 -271 91 -22 3 -51 13 -65 20 -14 7 -74 27 -134 44
-106 29 -146 50 -146 75 0 29 -25 34 -97 19 l-71 -14 -179 55 c-98 31 -195 64
-216 75 -22 11 -49 20 -62 20 -13 0 -27 5 -30 10 -3 6 -18 10 -33 10 -15 0
-40 7 -56 15 -15 8 -36 15 -45 15 -9 0 -21 4 -26 8 -6 5 -36 14 -67 21 -32 7
-60 17 -63 22 -4 5 -15 9 -26 9 -11 0 -32 6 -47 14 -15 8 -41 16 -58 19 -17 3
-39 9 -50 15 -10 6 -57 22 -104 37 -47 15 -137 49 -200 75 -158 65 -414 156
-480 170 -30 7 -81 21 -112 31 -32 11 -61 18 -65 17 -5 0 -15 2 -23 5 -8 4
-127 44 -265 91 -329 111 -355 121 -525 209 -126 65 -250 117 -495 212 -85 32
-105 38 -105 27 0 -5 -15 -8 -32 -7 -38 3 -98 26 -98 37 0 4 -9 8 -21 8 -11 0
-33 6 -47 14 -41 22 -117 56 -126 56 -4 0 -27 9 -52 20 -100 45 -131 58 -169
71 -22 8 -67 29 -100 47 -105 58 -205 103 -214 97 -5 -3 -12 -1 -16 5 -3 5
-15 10 -26 10 -11 0 -44 16 -74 35 -30 19 -66 37 -80 41 -14 3 -25 10 -25 14
0 5 -28 23 -62 40 -69 35 -115 59 -138 72 -8 4 -33 17 -55 28 -22 10 -51 26
-65 34 -14 8 -69 35 -122 62 -54 26 -98 50 -98 54 0 5 -45 31 -100 59 -56 28
-116 62 -134 76 -18 14 -38 25 -45 25 -22 0 -72 31 -158 96 -88 67 -154 90
-180 64z m5662 -2250 c14 -7 8 -8 -20 -3 -22 3 -42 7 -44 9 -9 8 45 2 64 -6z"/>
<path d="M10416 9294 c-9 -22 -8 -24 9 -24 8 0 15 9 15 20 0 24 -15 27 -24 4z"/>
<path d="M10700 7569 c0 -5 11 -15 25 -21 14 -6 25 -15 25 -19 0 -15 81 -48
132 -54 l53 -5 -90 44 c-112 55 -145 68 -145 55z"/>
</g>
</svg>
